# xmcd
#
# Track frame offsets: 
#        150
#        14850
#        27772
#        46987
#        60450
#        73997
#        83925
#        110250
#        120922
#        135525
#        144900
#        160950
#        175350
#        192075
#        202350
#        222535
#        235475
#        247275
#
# Disc length: 3478 seconds
#
# Revision: 0
# Processed by: cddbd v1.5.2PL0 Copyright (c) Steve Scherf et al.
# Submitted via: ExactAudioCopy v0.99pb5
#
DISCID=140d9412
DTITLE=Freeway 75 - Boozed
DYEAR=1974
DGENRE=Blues
TTITLE0=Watch Your Man
TTITLE1=Mean Mean Train
TTITLE2=Marilyn
TTITLE3=Jealous Woman
TTITLE4=The Gull
TTITLE5=Break Up Baby
TTITLE6=How Many Times
TTITLE7=Keep Me in Check
TTITLE8=Summer Night
TTITLE9=Stix' Boogie
TTITLE10=Hey Mama
TTITLE11=Jivin'
TTITLE12=Hang Around
TTITLE13=Santa Fe
TTITLE14=My Love Is Gone
TTITLE15=Shake It!
TTITLE16=Sunset
TTITLE17=I'm A King Bee
EXTD=
EXTT0=
EXTT1=
EXTT2=
EXTT3=
EXTT4=
EXTT5=
EXTT6=
EXTT7=
EXTT8=
EXTT9=
EXTT10=
EXTT11=
EXTT12=
EXTT13=
EXTT14=
EXTT15=
EXTT16=
EXTT17=
PLAYORDER=
